<svg xmlns="http://www.w3.org/2000/svg" viewBox="0 0 570 80" width="570" height="80">
  <defs>
    <linearGradient id="bg" x1="0%" y1="0%" x2="100%" y2="100%">
      <stop offset="0%" style="stop-color:#0d0d0f"/>
      <stop offset="100%" style="stop-color:#111113"/>
    </linearGradient>
    <style>
      .btn-bg { fill: #1e1e22; stroke: #2e2e36; stroke-width: 0.8; }
      .btn-text { font-family: -apple-system, BlinkMacSystemFont, 'Segoe UI', sans-serif; font-size: 13px; font-weight: 500; fill: #e8e8f0; dominant-baseline: middle; }
      .icon { fill: #e8e8f0; }
      .icon-stroke { fill: none; stroke: #e8e8f0; stroke-width: 2; stroke-linecap: round; stroke-linejoin: round; }
      a:hover .btn-bg { fill: #26262c; }
      .btn-li:hover .btn-bg   { stroke: #0A66C2; filter: drop-shadow(0 0 8px #0A66C244); }
      .btn-gh:hover .btn-bg   { stroke: #aaaaaa; filter: drop-shadow(0 0 8px #aaaaaa33); }
      .btn-npm:hover .btn-bg  { stroke: #CB3837; filter: drop-shadow(0 0 8px #CB383744); }
      .btn-web:hover .btn-bg  { stroke: #4285F4; filter: drop-shadow(0 0 8px #4285F444); }
      .btn-mail:hover .btn-bg { stroke: #EA4335; filter: drop-shadow(0 0 8px #EA433544); }
    </style>
  </defs>

  <rect width="570" height="80" fill="url(#bg)" rx="14"/>

  <!-- Each button is 100px wide with 10px gaps. Centers: 60, 170, 280, 390, 505 -->
  <!-- Icon+text group is centered via a <g> translate to button center, then icon at -half_content_w, text at icon_w+gap-half_content_w -->

  <!-- LinkedIn: center=60, content=18+6+52=76px, half=38 -->
  <a href="https://www.linkedin.com/in/scottabrahamkeinstrom/" class="btn-li">
    <rect class="btn-bg" x="10" y="16" width="100" height="48" rx="8"/>
    <g transform="translate(60,40)">
      <svg x="-38" y="-9" width="18" height="18" viewBox="0 0 24 24">
        <path class="icon" d="M20.447 20.452h-3.554v-5.569c0-1.328-.027-3.037-1.852-3.037-1.853 0-2.136 1.445-2.136 2.939v5.667H9.351V9h3.414v1.561h.046c.477-.9 1.637-1.85 3.37-1.85 3.601 0 4.267 2.37 4.267 5.455v6.286zM5.337 7.433a2.062 2.062 0 01-2.063-2.065 2.064 2.064 0 112.063 2.065zm1.782 13.019H3.555V9h3.564v11.452zM22.225 0H1.771C.792 0 0 .774 0 1.729v20.542C0 23.227.792 24 1.771 24h20.451C23.2 24 24 23.227 24 22.271V1.729C24 .774 23.2 0 22.222 0h.003z"/>
      </svg>
      <text class="btn-text" x="-15" y="0">LinkedIn</text>
    </g>
  </a>

  <!-- GitHub: center=170, content=18+6+44=68px, half=34 -->
  <a href="https://github.com/sabrkei" class="btn-gh">
    <rect class="btn-bg" x="120" y="16" width="100" height="48" rx="8"/>
    <g transform="translate(170,40)">
      <svg x="-34" y="-9" width="18" height="18" viewBox="0 0 24 24">
        <path class="icon" d="M12 .297c-6.63 0-12 5.373-12 12 0 5.303 3.438 9.8 8.205 11.385.6.113.82-.258.82-.577 0-.285-.01-1.04-.015-2.04-3.338.724-4.042-1.61-4.042-1.61C4.422 18.07 3.633 17.7 3.633 17.7c-1.087-.744.084-.729.084-.729 1.205.084 1.838 1.236 1.838 1.236 1.07 1.835 2.809 1.305 3.495.998.108-.776.417-1.305.76-1.605-2.665-.3-5.466-1.332-5.466-5.93 0-1.31.465-2.38 1.235-3.22-.135-.303-.54-1.523.105-3.176 0 0 1.005-.322 3.3 1.23.96-.267 1.98-.399 3-.405 1.02.006 2.04.138 3 .405 2.28-1.552 3.285-1.23 3.285-1.23.645 1.653.24 2.873.12 3.176.765.84 1.23 1.91 1.23 3.22 0 4.61-2.805 5.625-5.475 5.92.42.36.81 1.096.81 2.22 0 1.606-.015 2.896-.015 3.286 0 .315.21.69.825.57C20.565 22.092 24 17.592 24 12.297c0-6.627-5.373-12-12-12"/>
      </svg>
      <text class="btn-text" x="-11" y="0">GitHub</text>
    </g>
  </a>

  <!-- npm: center=280, content=18+6+24=48px, half=24 -->
  <a href="https://www.npmjs.com/~sabrkei" class="btn-npm">
    <rect class="btn-bg" x="230" y="16" width="100" height="48" rx="8"/>
    <g transform="translate(280,40)">
      <svg x="-24" y="-9" width="18" height="18" viewBox="0 0 24 24">
        <path class="icon" d="M1.763 0C.786 0 0 .786 0 1.763v20.474C0 23.214.786 24 1.763 24h20.474c.977 0 1.763-.786 1.763-1.763V1.763C24 .786 23.214 0 22.237 0zM5.13 5.323l13.837.019-.009 13.836h-3.464l.01-10.382h-3.456L12.04 19.17H5.113z"/>
      </svg>
      <text class="btn-text" x="-1" y="0">npm</text>
    </g>
  </a>

  <!-- Portfolio: center=390, content=18+6+52=76px, half=38 -->
  <a href="https://gbg-web.com" class="btn-web">
    <rect class="btn-bg" x="340" y="16" width="100" height="48" rx="8"/>
    <g transform="translate(390,40)">
      <svg x="-38" y="-9" width="18" height="18" viewBox="0 0 24 24">
        <circle class="icon-stroke" cx="12" cy="12" r="10"/>
        <line class="icon-stroke" x1="2" y1="12" x2="22" y2="12"/>
        <path class="icon-stroke" d="M12 2a15.3 15.3 0 014 10 15.3 15.3 0 01-4 10 15.3 15.3 0 01-4-10 15.3 15.3 0 014-10z"/>
      </svg>
      <text class="btn-text" x="-15" y="0">Portfolio</text>
    </g>
  </a>

  <!-- Email: center=505, content=18+6+32=56px, half=28. btn x=455..565 -->
  <a href="mailto:scottabraham87@gmail.com" class="btn-mail">
    <rect class="btn-bg" x="455" y="16" width="110" height="48" rx="8"/>
    <g transform="translate(510,40)">
      <svg x="-28" y="-9" width="18" height="18" viewBox="0 0 24 24">
        <path class="icon-stroke" d="M4 4h16c1.1 0 2 .9 2 2v12c0 1.1-.9 2-2 2H4c-1.1 0-2-.9-2-2V6c0-1.1.9-2 2-2z"/>
        <polyline class="icon-stroke" points="22,6 12,13 2,6"/>
      </svg>
      <text class="btn-text" x="-5" y="0">Email</text>
    </g>
  </a>

</svg>
