<svg xmlns="http://www.w3.org/2000/svg" viewBox="0 0 800 112" width="800" height="112">
  <defs>
    <linearGradient id="bg" x1="0%" y1="0%" x2="0%" y2="100%">
      <stop offset="0%" stop-color="#1a1a1e"/>
      <stop offset="100%" stop-color="#111113"/>
    </linearGradient>
    <linearGradient id="btn-grad" x1="0%" y1="0%" x2="0%" y2="100%">
      <stop offset="0%" stop-color="#2c2c32"/>
      <stop offset="100%" stop-color="#1e1e22"/>
    </linearGradient>
  </defs>

  <rect width="800" height="112" fill="url(#bg)" rx="16"/>
  <rect x="20" y="1" width="760" height="1" rx="0.5" fill="#ffffff" fill-opacity="0.05"/>

  <!--
    5 buttons. Widths: LinkedIn=136, GitHub=130, npm=120, Portfolio=148, Email=154. Total=688.
    Gaps between: 4 x 12 = 48. Grand total = 736.
    Start x = (800 - 736) / 2 = 32.
    Centers: LinkedIn=32+68=100, GitHub=32+136+12+65=245, npm=32+136+12+130+12+60=382,
             Portfolio=32+136+12+130+12+120+12+74=528, Email=32+136+12+130+12+120+12+148+12+77=691
  -->

  <!-- LinkedIn: x=32, w=136, center=100 -->
  <a href="https://www.linkedin.com/in/scottabrahamkeinstrom/">
    <rect x="32" y="16" width="136" height="80" rx="10" fill="url(#btn-grad)" stroke="#444450" stroke-width="0.8"/>
    <rect x="32" y="16" width="136" height="1.5" rx="1" fill="#ffffff" fill-opacity="0.07"/>
    <g transform="translate(100,56)">
      <svg x="-48" y="-11" width="22" height="22" viewBox="0 0 24 24">
        <path fill="#e8e8f0" d="M20.447 20.452h-3.554v-5.569c0-1.328-.027-3.037-1.852-3.037-1.853 0-2.136 1.445-2.136 2.939v5.667H9.351V9h3.414v1.561h.046c.477-.9 1.637-1.85 3.37-1.85 3.601 0 4.267 2.37 4.267 5.455v6.286zM5.337 7.433a2.062 2.062 0 01-2.063-2.065 2.064 2.064 0 112.063 2.065zm1.782 13.019H3.555V9h3.564v11.452zM22.225 0H1.771C.792 0 0 .774 0 1.729v20.542C0 23.227.792 24 1.771 24h20.451C23.2 24 24 23.227 24 22.271V1.729C24 .774 23.2 0 22.222 0h.003z"/>
      </svg>
      <text x="-21" y="0" font-family="-apple-system, BlinkMacSystemFont, 'Segoe UI', sans-serif" font-size="15" font-weight="500" fill="#e8e8f0" dominant-baseline="middle">LinkedIn</text>
    </g>
  </a>

  <!-- GitHub: x=180, w=130, center=245 -->
  <a href="https://github.com/sabrkei">
    <rect x="180" y="16" width="130" height="80" rx="10" fill="url(#btn-grad)" stroke="#444450" stroke-width="0.8"/>
    <rect x="180" y="16" width="130" height="1.5" rx="1" fill="#ffffff" fill-opacity="0.07"/>
    <g transform="translate(245,56)">
      <svg x="-44" y="-11" width="22" height="22" viewBox="0 0 24 24">
        <path fill="#e8e8f0" d="M12 .297c-6.63 0-12 5.373-12 12 0 5.303 3.438 9.8 8.205 11.385.6.113.82-.258.82-.577 0-.285-.01-1.04-.015-2.04-3.338.724-4.042-1.61-4.042-1.61C4.422 18.07 3.633 17.7 3.633 17.7c-1.087-.744.084-.729.084-.729 1.205.084 1.838 1.236 1.838 1.236 1.07 1.835 2.809 1.305 3.495.998.108-.776.417-1.305.76-1.605-2.665-.3-5.466-1.332-5.466-5.93 0-1.31.465-2.38 1.235-3.22-.135-.303-.54-1.523.105-3.176 0 0 1.005-.322 3.3 1.23.96-.267 1.98-.399 3-.405 1.02.006 2.04.138 3 .405 2.28-1.552 3.285-1.23 3.285-1.23.645 1.653.24 2.873.12 3.176.765.84 1.23 1.91 1.23 3.22 0 4.61-2.805 5.625-5.475 5.92.42.36.81 1.096.81 2.22 0 1.606-.015 2.896-.015 3.286 0 .315.21.69.825.57C20.565 22.092 24 17.592 24 12.297c0-6.627-5.373-12-12-12"/>
      </svg>
      <text x="-17" y="0" font-family="-apple-system, BlinkMacSystemFont, 'Segoe UI', sans-serif" font-size="15" font-weight="500" fill="#e8e8f0" dominant-baseline="middle">GitHub</text>
    </g>
  </a>

  <!-- npm: x=322, w=120, center=382 -->
  <a href="https://www.npmjs.com/~sabrkei">
    <rect x="322" y="16" width="120" height="80" rx="10" fill="url(#btn-grad)" stroke="#444450" stroke-width="0.8"/>
    <rect x="322" y="16" width="120" height="1.5" rx="1" fill="#ffffff" fill-opacity="0.07"/>
    <g transform="translate(382,56)">
      <svg x="-34" y="-11" width="22" height="22" viewBox="0 0 24 24">
        <path fill="#e8e8f0" d="M1.763 0C.786 0 0 .786 0 1.763v20.474C0 23.214.786 24 1.763 24h20.474c.977 0 1.763-.786 1.763-1.763V1.763C24 .786 23.214 0 22.237 0zM5.13 5.323l13.837.019-.009 13.836h-3.464l.01-10.382h-3.456L12.04 19.17H5.113z"/>
      </svg>
      <text x="-7" y="0" font-family="-apple-system, BlinkMacSystemFont, 'Segoe UI', sans-serif" font-size="15" font-weight="500" fill="#e8e8f0" dominant-baseline="middle">npm</text>
    </g>
  </a>

  <!-- Portfolio: x=454, w=148, center=528 -->
  <a href="https://gbg-web.com">
    <rect x="454" y="16" width="148" height="80" rx="10" fill="url(#btn-grad)" stroke="#444450" stroke-width="0.8"/>
    <rect x="454" y="16" width="148" height="1.5" rx="1" fill="#ffffff" fill-opacity="0.07"/>
    <g transform="translate(528,56)">
      <svg x="-52" y="-11" width="22" height="22" viewBox="0 0 24 24">
        <circle fill="none" stroke="#e8e8f0" stroke-width="2" stroke-linecap="round" stroke-linejoin="round" cx="12" cy="12" r="10"/>
        <line fill="none" stroke="#e8e8f0" stroke-width="2" stroke-linecap="round" x1="2" y1="12" x2="22" y2="12"/>
        <path fill="none" stroke="#e8e8f0" stroke-width="2" stroke-linecap="round" stroke-linejoin="round" d="M12 2a15.3 15.3 0 014 10 15.3 15.3 0 01-4 10 15.3 15.3 0 01-4-10 15.3 15.3 0 014-10z"/>
      </svg>
      <text x="-25" y="0" font-family="-apple-system, BlinkMacSystemFont, 'Segoe UI', sans-serif" font-size="15" font-weight="500" fill="#e8e8f0" dominant-baseline="middle">Portfolio</text>
    </g>
  </a>

  <!-- Email: x=614, w=154, center=691 -->
  <a href="mailto:scottabraham87@gmail.com">
    <rect x="614" y="16" width="154" height="80" rx="10" fill="url(#btn-grad)" stroke="#444450" stroke-width="0.8"/>
    <rect x="614" y="16" width="154" height="1.5" rx="1" fill="#ffffff" fill-opacity="0.07"/>
    <g transform="translate(691,56)">
      <svg x="-43" y="-11" width="22" height="22" viewBox="0 0 24 24">
        <path fill="none" stroke="#e8e8f0" stroke-width="2" stroke-linecap="round" stroke-linejoin="round" d="M4 4h16c1.1 0 2 .9 2 2v12c0 1.1-.9 2-2 2H4c-1.1 0-2-.9-2-2V6c0-1.1.9-2 2-2z"/>
        <polyline fill="none" stroke="#e8e8f0" stroke-width="2" stroke-linecap="round" stroke-linejoin="round" points="22,6 12,13 2,6"/>
      </svg>
      <text x="-16" y="0" font-family="-apple-system, BlinkMacSystemFont, 'Segoe UI', sans-serif" font-size="15" font-weight="500" fill="#e8e8f0" dominant-baseline="middle">Email</text>
    </g>
  </a>

</svg>
