<svg xmlns="http://www.w3.org/2000/svg" viewBox="0 0 140 80" width="140" height="80">
  <defs>
    <linearGradient id="bg" x1="0%" y1="0%" x2="0%" y2="100%">
      <stop offset="0%" stop-color="#1a1a1e"/>
      <stop offset="100%" stop-color="#111113"/>
    </linearGradient>
    <linearGradient id="btn" x1="0%" y1="0%" x2="0%" y2="100%">
      <stop offset="0%" stop-color="#2c2c32"/>
      <stop offset="100%" stop-color="#1e1e22"/>
    </linearGradient>
  </defs>
  <rect width="140" height="80" fill="url(#bg)" rx="12"/>
  <rect x="4" y="4" width="132" height="72" rx="10" fill="url(#btn)" stroke="#444450" stroke-width="0.8"/>
  <rect x="4" y="4" width="132" height="1.5" rx="1" fill="#ffffff" fill-opacity="0.07"/>
  <g transform="translate(70,40)">
    <svg x="-43" y="-11" width="22" height="22" viewBox="0 0 24 24">
      <path fill="none" stroke="#e8e8f0" stroke-width="2" stroke-linecap="round" stroke-linejoin="round" d="M4 4h16c1.1 0 2 .9 2 2v12c0 1.1-.9 2-2 2H4c-1.1 0-2-.9-2-2V6c0-1.1.9-2 2-2z"/>
      <polyline fill="none" stroke="#e8e8f0" stroke-width="2" stroke-linecap="round" stroke-linejoin="round" points="22,6 12,13 2,6"/>
    </svg>
    <text x="-16" y="0" font-family="-apple-system, BlinkMacSystemFont, 'Segoe UI', sans-serif" font-size="15" font-weight="500" fill="#e8e8f0" dominant-baseline="middle">Email</text>
  </g>
</svg>
