<svg xmlns="http://www.w3.org/2000/svg" viewBox="0 0 160 80" width="160" height="80">
  <defs>
    <linearGradient id="bg" x1="0%" y1="0%" x2="0%" y2="100%">
      <stop offset="0%" stop-color="#1a1a1e"/>
      <stop offset="100%" stop-color="#111113"/>
    </linearGradient>
    <linearGradient id="btn" x1="0%" y1="0%" x2="0%" y2="100%">
      <stop offset="0%" stop-color="#2c2c32"/>
      <stop offset="100%" stop-color="#1e1e22"/>
    </linearGradient>
  </defs>
  <rect width="160" height="80" fill="url(#bg)" rx="12"/>
  <rect x="4" y="4" width="152" height="72" rx="10" fill="url(#btn)" stroke="#444450" stroke-width="0.8"/>
  <rect x="4" y="4" width="152" height="1.5" rx="1" fill="#ffffff" fill-opacity="0.07"/>
  <g transform="translate(80,40)">
    <svg x="-48" y="-11" width="22" height="22" viewBox="0 0 24 24">
      <path fill="#e8e8f0" d="M20.447 20.452h-3.554v-5.569c0-1.328-.027-3.037-1.852-3.037-1.853 0-2.136 1.445-2.136 2.939v5.667H9.351V9h3.414v1.561h.046c.477-.9 1.637-1.85 3.37-1.85 3.601 0 4.267 2.37 4.267 5.455v6.286zM5.337 7.433a2.062 2.062 0 01-2.063-2.065 2.064 2.064 0 112.063 2.065zm1.782 13.019H3.555V9h3.564v11.452zM22.225 0H1.771C.792 0 0 .774 0 1.729v20.542C0 23.227.792 24 1.771 24h20.451C23.2 24 24 23.227 24 22.271V1.729C24 .774 23.2 0 22.222 0h.003z"/>
    </svg>
    <text x="-21" y="0" font-family="-apple-system, BlinkMacSystemFont, 'Segoe UI', sans-serif" font-size="15" font-weight="500" fill="#e8e8f0" dominant-baseline="middle">LinkedIn</text>
  </g>
</svg>
