<svg xmlns="http://www.w3.org/2000/svg" viewBox="0 0 130 80" width="130" height="80">
  <defs>
    <linearGradient id="bg" x1="0%" y1="0%" x2="0%" y2="100%">
      <stop offset="0%" stop-color="#1a1a1e"/>
      <stop offset="100%" stop-color="#111113"/>
    </linearGradient>
    <linearGradient id="btn" x1="0%" y1="0%" x2="0%" y2="100%">
      <stop offset="0%" stop-color="#2c2c32"/>
      <stop offset="100%" stop-color="#1e1e22"/>
    </linearGradient>
  </defs>
  <rect width="130" height="80" fill="url(#bg)" rx="12"/>
  <rect x="4" y="4" width="122" height="72" rx="10" fill="url(#btn)" stroke="#444450" stroke-width="0.8"/>
  <rect x="4" y="4" width="122" height="1.5" rx="1" fill="#ffffff" fill-opacity="0.07"/>
  <g transform="translate(65,40)">
    <svg x="-34" y="-11" width="22" height="22" viewBox="0 0 24 24">
      <path fill="#e8e8f0" d="M1.763 0C.786 0 0 .786 0 1.763v20.474C0 23.214.786 24 1.763 24h20.474c.977 0 1.763-.786 1.763-1.763V1.763C24 .786 23.214 0 22.237 0zM5.13 5.323l13.837.019-.009 13.836h-3.464l.01-10.382h-3.456L12.04 19.17H5.113z"/>
    </svg>
    <text x="-7" y="0" font-family="-apple-system, BlinkMacSystemFont, 'Segoe UI', sans-serif" font-size="15" font-weight="500" fill="#e8e8f0" dominant-baseline="middle">npm</text>
  </g>
</svg>
