<svg xmlns="http://www.w3.org/2000/svg" viewBox="0 0 130 80" width="130" height="80">
  <rect width="130" height="80" fill="#111113" rx="12"/>
  <rect x="4" y="4" width="122" height="72" rx="10" fill="#1e1e22" stroke="#444450" stroke-width="0.8"/>
  <g transform="translate(65,40)">
    <svg x="-34" y="-11" width="22" height="22" viewBox="0 0 24 24">
      <path fill="#e8e8f0" d="M1.763 0C.786 0 0 .786 0 1.763v20.474C0 23.214.786 24 1.763 24h20.474c.977 0 1.763-.786 1.763-1.763V1.763C24 .786 23.214 0 22.237 0zM5.13 5.323l13.837.019-.009 13.836h-3.464l.01-10.382h-3.456L12.04 19.17H5.113z"/>
    </svg>
    <text x="-7" y="0" font-family="-apple-system,BlinkMacSystemFont,'Segoe UI',sans-serif" font-size="15" font-weight="500" fill="#e8e8f0" dominant-baseline="middle">npm</text>
  </g>
</svg>
