<svg xmlns="http://www.w3.org/2000/svg" viewBox="0 0 165 80" width="165" height="80">
  <defs>
    <linearGradient id="bg" x1="0%" y1="0%" x2="0%" y2="100%">
      <stop offset="0%" stop-color="#1a1a1e"/>
      <stop offset="100%" stop-color="#111113"/>
    </linearGradient>
    <linearGradient id="btn" x1="0%" y1="0%" x2="0%" y2="100%">
      <stop offset="0%" stop-color="#2c2c32"/>
      <stop offset="100%" stop-color="#1e1e22"/>
    </linearGradient>
  </defs>
  <rect width="165" height="80" fill="url(#bg)" rx="12"/>
  <rect x="4" y="4" width="157" height="72" rx="10" fill="url(#btn)" stroke="#444450" stroke-width="0.8"/>
  <rect x="4" y="4" width="157" height="1.5" rx="1" fill="#ffffff" fill-opacity="0.07"/>
  <g transform="translate(82,40)">
    <svg x="-52" y="-11" width="22" height="22" viewBox="0 0 24 24">
      <circle fill="none" stroke="#e8e8f0" stroke-width="2" stroke-linecap="round" stroke-linejoin="round" cx="12" cy="12" r="10"/>
      <line fill="none" stroke="#e8e8f0" stroke-width="2" stroke-linecap="round" x1="2" y1="12" x2="22" y2="12"/>
      <path fill="none" stroke="#e8e8f0" stroke-width="2" stroke-linecap="round" stroke-linejoin="round" d="M12 2a15.3 15.3 0 014 10 15.3 15.3 0 01-4 10 15.3 15.3 0 01-4-10 15.3 15.3 0 014-10z"/>
    </svg>
    <text x="-25" y="0" font-family="-apple-system, BlinkMacSystemFont, 'Segoe UI', sans-serif" font-size="15" font-weight="500" fill="#e8e8f0" dominant-baseline="middle">Portfolio</text>
  </g>
</svg>
